<?xml version="1.0" encoding="utf-8"?>
<!-- Generator: Adobe Illustrator 27.1.0, SVG Export Plug-In . SVG Version: 6.00 Build 0)  -->
<svg version="1.1" id="Capa_1" xmlns="http://www.w3.org/2000/svg" xmlns:xlink="http://www.w3.org/1999/xlink" x="0px" y="0px"
	 viewBox="0 0 50 50" style="enable-background:new 0 0 50 50;" xml:space="preserve">
<style type="text/css">
	.st0{fill:#FFFFFF;}
</style>
<g>
	<path class="st0" d="M8.68,43.54l-1.72-1.72c-1.67-1.67-1.67-4.39,0-6.06L36.26,6.46c1.67-1.67,4.39-1.67,6.06,0l1.72,1.72
		c1.67,1.67,1.67,4.39,0,6.06L14.74,43.54C13.07,45.21,10.35,45.21,8.68,43.54z"/>
</g>
<g>
	<path class="st0" d="M6.96,8.18l1.72-1.72c1.67-1.67,4.39-1.67,6.06,0l29.29,29.29c1.67,1.67,1.67,4.39,0,6.06l-1.72,1.72
		c-1.67,1.67-4.39,1.67-6.06,0L6.96,14.24C5.29,12.57,5.29,9.85,6.96,8.18z"/>
</g>
</svg>
