<?xml version="1.0" encoding="utf-8"?>
<!-- Generator: Adobe Illustrator 27.1.0, SVG Export Plug-In . SVG Version: 6.00 Build 0)  -->
<svg version="1.1" id="Capa_1" xmlns="http://www.w3.org/2000/svg" xmlns:xlink="http://www.w3.org/1999/xlink" x="0px" y="0px"
	 viewBox="0 0 50 50" style="enable-background:new 0 0 50 50;" xml:space="preserve">
<style type="text/css">
	.st0{fill:#FFFFFF;}
</style>
<g>
	<path class="st0" d="M14.43,42.91l-1.72-1.72c-1.67-1.67-1.67-4.39,0-6.06L40.08,7.77c1.67-1.67,4.39-1.67,6.06,0l1.72,1.72
		c1.67,1.67,1.67,4.39,0,6.06L20.49,42.91C18.82,44.59,16.1,44.59,14.43,42.91z"/>
</g>
<g>
	<path class="st0" d="M1.89,24.23l1.72-1.72c1.67-1.67,4.39-1.67,6.06,0l11.69,11.69c1.67,1.67,1.67,4.39,0,6.06l-1.72,1.72
		c-1.67,1.67-4.39,1.67-6.06,0L1.89,30.3C0.22,28.62,0.22,25.91,1.89,24.23z"/>
</g>
</svg>
